<?xml version="1.0" standalone="no"?>
<!DOCTYPE svg PUBLIC "-//W3C//DTD SVG 20010904//EN"
 "http://www.w3.org/TR/2001/REC-SVG-20010904/DTD/svg10.dtd">
<svg version="1.0" xmlns="http://www.w3.org/2000/svg"
 width="541.000000pt" height="541.000000pt" viewBox="0 0 541.000000 541.000000"
 preserveAspectRatio="xMidYMid meet">
<metadata>
Created by potrace 1.14, written by Peter Selinger 2001-2017
</metadata>
<g transform="translate(0.000000,541.000000) scale(0.100000,-0.100000)"
fill="#000000" stroke="none">
<path d="M2593 5404 c-12 -3 -36 -18 -53 -34 -53 -49 -39 -134 34 -197 53 -47
244 -115 441 -156 115 -25 359 -12 413 22 19 11 23 48 6 61 -7 7 -24 10 -37 6
-13 -3 -42 -8 -63 -12 -21 -3 -42 -8 -46 -11 -18 -11 -203 -2 -265 12 -37 9
-75 18 -83 20 -57 12 -200 58 -249 80 -66 30 -84 46 -100 87 -9 24 -7 29 11
39 33 18 141 15 263 -6 17 -3 133 -30 258 -60 126 -30 243 -55 260 -55 31 1
31 1 12 16 -35 27 -144 75 -249 109 -88 28 -134 40 -291 70 -42 8 -235 15
-262 9z"/>
<path d="M2725 4951 c-99 -28 -167 -69 -252 -152 -116 -113 -175 -232 -177
-361 -1 -68 -3 -77 -18 -72 -88 27 -229 25 -292 -5 -61 -30 -87 -71 -94 -146
-4 -56 -1 -70 32 -142 39 -87 43 -123 22 -193 -16 -56 -7 -104 38 -185 18 -33
41 -84 51 -114 21 -65 79 -133 109 -129 33 5 30 31 -8 91 -20 31 -36 62 -36
70 0 12 -24 61 -73 152 -20 36 -21 74 -4 140 18 66 14 106 -18 177 -50 111
-43 172 23 204 29 14 53 15 131 10 53 -3 112 -9 131 -13 19 -3 62 -7 96 -7 57
-1 60 -2 62 -26 1 -14 16 -54 34 -90 42 -83 94 -121 172 -128 76 -6 130 9 276
79 181 87 265 104 282 57 8 -21 -1 -92 -18 -139 -8 -24 -18 -73 -21 -110 -6
-75 11 -122 53 -141 33 -15 25 -32 -17 -38 -32 -5 -33 -6 -10 -14 17 -6 31 -3
52 13 53 40 172 22 200 -30 12 -24 15 -21 -36 -48 -49 -26 -97 -26 -151 -2
-49 22 -64 41 -34 41 12 0 19 -4 15 -9 -3 -5 11 -15 32 -22 31 -10 41 -9 68 5
33 18 67 60 40 50 -8 -4 -15 -9 -15 -13 0 -12 -49 -31 -80 -31 -35 0 -40 15
-7 24 12 3 28 16 36 28 13 22 13 23 -6 6 -11 -10 -41 -22 -67 -27 -47 -9 -50
-7 -99 29 -91 70 -181 73 -250 9 l-32 -29 45 25 c76 42 161 27 241 -42 109
-95 189 -108 282 -46 20 15 40 23 44 20 11 -11 -47 -134 -97 -205 -117 -167
-273 -245 -485 -243 -283 3 -486 109 -583 305 -46 93 -59 156 -61 291 -2 132
-14 195 -36 195 -18 0 -16 15 -21 -165 -4 -203 15 -287 94 -415 85 -135 241
-239 417 -276 160 -34 375 -18 499 37 90 40 190 133 260 244 143 225 178 579
78 785 -27 56 -57 75 -68 45 -4 -9 3 -49 15 -88 34 -116 44 -231 29 -341 -10
-70 -14 -76 -33 -49 -24 34 -77 53 -149 53 -91 0 -97 14 -60 150 25 95 25 201
-1 230 -44 50 -142 64 -231 34 -25 -8 -101 -42 -168 -75 -133 -64 -168 -75
-220 -65 -122 23 -173 204 -89 314 22 30 24 36 11 48 -11 11 -21 12 -40 5 -44
-17 -77 -62 -90 -122 l-11 -57 -36 15 c-20 9 -39 20 -42 25 -9 14 -1 105 12
148 17 55 74 150 119 202 84 96 238 178 333 178 56 0 136 -40 163 -82 12 -18
42 -65 67 -105 82 -129 161 -156 334 -114 103 25 135 28 184 18 70 -14 100
-64 113 -186 10 -82 15 -98 64 -194 54 -106 54 -140 -2 -235 -49 -83 -64 -154
-43 -204 11 -26 22 -38 36 -38 28 0 36 17 37 76 1 41 9 66 41 122 77 134 79
180 13 315 -40 83 -53 130 -64 225 -21 183 -157 251 -383 193 -91 -23 -157
-26 -190 -8 -26 15 -48 42 -98 126 -48 80 -88 122 -144 151 -57 29 -147 33
-226 11z"/>
<path d="M1254 4271 c-48 -22 -77 -64 -96 -141 -27 -106 -10 -214 53 -347 54
-114 140 -223 277 -353 183 -174 391 -302 615 -380 l82 -28 -50 -2 c-27 -1
-52 -2 -55 -2 -49 0 -153 17 -206 33 -242 75 -457 246 -699 559 -133 173 -272
318 -355 372 -144 93 -286 105 -400 33 -75 -47 -160 -167 -185 -260 -5 -16
-10 -37 -12 -45 -2 -8 -7 -60 -10 -115 -5 -90 -2 -121 23 -245 3 -14 18 -58
35 -98 71 -179 206 -326 365 -399 l54 -25 -35 -48 c-107 -146 -119 -334 -30
-475 66 -104 161 -157 295 -163 l85 -4 0 -42 c1 -60 48 -149 114 -215 121
-121 279 -160 433 -108 l67 23 20 -27 c35 -47 104 -73 205 -76 54 -1 95 2 103
8 7 6 -5 -27 -26 -73 -56 -121 -97 -241 -142 -417 -21 -85 -41 -156 -43 -158
-2 -3 -51 -11 -108 -18 -303 -40 -594 -123 -802 -227 -216 -108 -419 -285
-487 -424 -29 -58 -34 -79 -34 -139 1 -100 32 -153 116 -197 160 -83 534 -42
794 89 270 135 446 388 534 769 l12 50 47 3 c26 2 72 5 102 7 30 1 120 6 200
9 80 3 165 8 189 10 l44 5 -6 -198 c-4 -108 -9 -208 -11 -222 -2 -14 -7 -53
-10 -87 -14 -136 -44 -297 -71 -373 -15 -42 -8 -54 22 -44 36 13 63 48 92 118
36 87 86 283 105 411 2 17 7 48 10 70 4 22 8 58 11 80 2 22 7 60 9 85 3 25 8
70 12 100 3 30 11 58 16 62 21 12 168 30 195 23 15 -4 48 -9 73 -12 25 -3 46
-6 47 -7 1 -1 4 -33 8 -71 3 -39 8 -86 11 -105 3 -19 7 -57 9 -85 9 -94 37
-260 60 -360 47 -202 101 -305 160 -305 21 0 21 0 -6 108 -15 60 -29 131 -33
158 -3 27 -8 67 -11 89 -12 99 -16 163 -22 358 l-6 208 149 -6 c309 -11 421
-18 429 -27 3 -3 17 -50 31 -104 88 -346 249 -571 501 -698 215 -108 524 -159
715 -117 62 13 140 60 171 103 124 168 -62 456 -423 655 -227 126 -676 248
-947 257 -13 1 -23 3 -24 6 -5 33 -14 74 -40 179 -17 67 -33 129 -35 136 -6
15 33 26 114 31 55 3 163 33 215 61 44 23 113 90 127 124 11 24 17 29 34 24
80 -24 141 -33 208 -31 96 3 181 42 257 117 73 74 113 159 112 241 l0 65 57
17 c77 24 147 68 204 127 88 91 120 188 112 342 -7 143 -43 255 -98 306 l-26
24 43 36 c147 124 261 306 297 476 58 271 -46 578 -232 680 -120 67 -272 26
-412 -112 -38 -37 -87 -92 -109 -120 -22 -29 -41 -53 -42 -53 -1 0 4 19 13 43
10 25 16 75 17 127 0 74 -4 92 -28 141 -49 96 -138 133 -229 95 -87 -37 -201
-171 -378 -446 -183 -285 -270 -385 -419 -484 -71 -47 -81 -62 -60 -83 25 -25
199 87 295 189 71 77 130 156 219 293 173 268 212 323 271 383 57 57 108 88
142 85 6 0 18 -1 25 -2 23 -2 57 -37 76 -78 40 -80 10 -202 -92 -385 -114
-204 -287 -359 -542 -486 -245 -122 -444 -185 -654 -208 -70 -7 -68 -10 -46
81 14 57 13 61 -6 77 -38 32 -58 6 -83 -112 -20 -90 -14 -272 13 -382 25 -105
79 -248 160 -427 34 -74 61 -136 61 -138 0 -2 -12 4 -27 15 -78 55 -223 114
-362 147 -63 15 -81 16 -130 5 -157 -35 -324 -104 -423 -176 l-46 -34 13 47
c7 27 27 100 44 163 50 179 227 705 266 785 19 39 57 95 84 124 52 55 57 81
15 81 -33 0 -86 -36 -114 -77 -16 -24 -28 -32 -39 -27 -9 3 -104 31 -211 61
-209 58 -270 82 -396 153 -169 97 -360 262 -464 402 -98 130 -138 233 -138
354 -1 183 79 232 234 143 106 -60 170 -138 324 -394 105 -173 165 -259 229
-329 46 -49 169 -136 193 -136 38 0 18 36 -46 83 -118 86 -183 170 -350 447
-112 185 -176 270 -250 330 -116 95 -224 128 -302 91z m-559 -327 c124 -52
270 -187 415 -384 127 -174 251 -305 375 -401 69 -54 228 -147 265 -156 14 -3
30 -9 35 -13 18 -13 112 -37 180 -47 108 -15 255 1 320 35 27 14 97 18 116 6
4 -2 -5 -32 -21 -67 -56 -125 -255 -760 -314 -1002 -10 -38 -23 -78 -31 -88
-17 -24 -69 -36 -173 -42 -87 -5 -134 6 -161 39 -12 14 -8 22 32 62 52 54 100
135 91 157 -7 18 -29 28 -46 21 -7 -3 -30 -27 -50 -54 -83 -108 -202 -170
-318 -166 -75 3 -93 7 -146 34 -98 51 -170 142 -180 228 l-6 49 69 32 c111 51
158 108 106 127 -8 4 -54 -9 -102 -28 -47 -19 -109 -39 -137 -44 -261 -46
-429 179 -315 424 16 33 44 77 64 96 l35 35 90 -5 c112 -6 158 2 165 28 9 35
-14 48 -95 54 -353 27 -564 207 -637 541 -24 108 -21 249 7 327 66 184 214
266 367 202z m4226 -14 c102 -53 182 -225 188 -405 8 -243 -146 -514 -367
-649 -99 -60 -202 -89 -317 -89 -86 -1 -112 4 -189 30 -91 32 -110 33 -120 6
-16 -40 34 -81 144 -119 56 -20 81 -22 185 -20 121 4 201 23 293 70 41 21 47
21 77 -10 46 -46 74 -158 71 -287 -5 -181 -86 -291 -256 -346 -71 -23 -181
-16 -243 16 -20 10 -32 11 -47 3 -31 -17 -24 -47 18 -74 37 -25 122 -60 122
-50 0 2 9 0 21 -6 16 -9 19 -18 14 -48 -15 -101 -58 -171 -137 -226 -135 -92
-314 -65 -486 73 -65 53 -82 60 -100 38 -20 -23 41 -104 114 -153 30 -20 21
-48 -31 -100 -64 -63 -207 -104 -310 -87 -31 5 -38 16 -131 192 -54 102 -122
231 -152 286 -140 265 -247 510 -268 619 -16 81 -24 139 -26 191 l-3 60 80 2
c156 4 306 40 499 119 240 98 430 215 563 348 50 50 112 108 138 130 25 21 92
95 147 165 251 313 373 390 509 321z m-2346 -1842 c-111 -182 -171 -369 -210
-663 -3 -22 -8 -103 -11 -180 -4 -77 -7 -141 -8 -141 -1 -2 -96 -8 -261 -19
-66 -4 -177 -14 -242 -21 -54 -5 -54 -5 -8 146 20 63 37 120 38 125 21 87 113
277 192 395 123 186 281 313 470 381 69 24 69 24 40 -23z m128 24 c20 -22 62
-115 76 -168 13 -48 17 -76 31 -184 18 -145 33 -607 20 -615 -34 -21 -286 -22
-307 -2 -14 15 5 449 28 632 17 139 66 289 111 340 17 19 22 18 41 -3z m172
-19 c177 -70 340 -216 435 -389 126 -229 177 -353 225 -540 24 -98 25 -97 -47
-90 -35 4 -101 9 -148 12 -47 3 -103 7 -125 9 -22 1 -77 4 -122 5 -46 2 -84 5
-84 9 -1 3 -3 38 -4 76 -16 422 -86 701 -230 918 l-18 28 29 -7 c16 -4 56 -17
89 -31z m895 -1148 c95 -12 127 -16 150 -20 68 -11 96 -16 110 -20 8 -2 31 -7
50 -10 123 -21 352 -96 464 -152 178 -90 360 -240 404 -336 71 -151 -11 -248
-212 -252 -79 -2 -158 8 -326 39 -62 12 -213 66 -290 104 -71 35 -171 104
-224 154 -84 80 -185 259 -226 398 -12 41 -24 83 -26 93 -6 19 -7 19 126 2z
m-2063 -9 c-3 -8 -11 -34 -17 -58 -63 -243 -212 -448 -408 -563 -248 -146
-680 -226 -827 -155 -127 62 -108 209 44 353 212 200 544 340 951 401 264 40
264 40 257 22z"/>
<path d="M2266 4025 c8 -47 49 -100 90 -120 26 -12 67 -18 143 -20 147 -5 198
-30 235 -115 8 -19 15 -28 16 -19 0 29 -29 87 -57 114 -39 36 -72 44 -201 49
-138 5 -179 25 -217 108 l-15 33 6 -30z"/>
<path d="M2336 4008 c8 -50 45 -76 106 -73 27 1 51 -2 54 -7 3 -4 10 -8 16 -8
7 0 0 13 -15 28 -15 15 -27 35 -27 43 0 12 -1 12 -9 0 -6 -9 -6 -22 0 -33 5
-10 6 -18 1 -18 -13 0 -39 31 -51 60 -8 22 -10 22 -10 5 -1 -11 6 -31 15 -43
8 -12 11 -22 5 -22 -18 0 -71 52 -71 70 0 10 -4 21 -9 24 -5 4 -7 -8 -5 -26z"/>
</g>
</svg>
